<!DOCTYPE svg PUBLIC "-//W3C//DTD SVG 1.1//EN" "http://www.w3.org/Graphics/SVG/1.1/DTD/svg11.dtd">
<!-- Uploaded to: SVG Repo, www.svgrepo.com, Transformed by: SVG Repo Mixer Tools -->
<svg xmlns="http://www.w3.org/2000/svg" xmlns:xlink="http://www.w3.org/1999/xlink" version="1.1" id="Capa_1" viewBox="0 0 460 460" xml:space="preserve" width="800px" height="800px" fill="#000000" stroke="#000000">
<g id="SVGRepo_bgCarrier" stroke-width="0"/>
<g id="SVGRepo_tracerCarrier" stroke-linecap="round" stroke-linejoin="round"/>
<g id="SVGRepo_iconCarrier"> <g id="XMLID_844_"> <path id="XMLID_1068_" style="fill:#695538;" d="M110,435H60l-10-30h70L110,435z M410,405h-70l10,30h50L410,405z"/> <path id="XMLID_843_" style="fill:#CBB57A;" d="M460,415H0v-40h460V415z"/> <path id="XMLID_842_" style="fill:#9E8E60;" d="M460,425H0v-20h460V425z"/> <path id="XMLID_1783_" style="fill:#E6C700;" d="M200,105v280c0,5.523-4.477,10-10,10h-50c-5.523,0-10-4.477-10-10 c0,5.523-4.477,10-10,10H70c-5.523,0-10-4.477-10-10V35c0-5.523,4.477-10,10-10h50c5.523,0,10,4.477,10,10v70 c0-5.523,4.477-10,10-10h50C195.523,95,200,99.477,200,105z M419.751,350.584L259.15,121.222 c-3.168-4.524-9.403-5.624-13.927-2.456l-40.958,28.679c-4.524,3.168-5.624,9.403-2.456,13.927l160.601,229.363 c3.168,4.524,9.403,5.624,13.927,2.456l40.958-28.679C421.82,361.344,422.919,355.109,419.751,350.584z"/> <path id="XMLID_1778_" style="fill:#FEDE00;" d="M200,235H60V135h140V235z M200,295H60v30h140V295z"/> <path id="XMLID_1782_" style="fill:#0A7029;" d="M259.15,121.222l160.601,229.363c3.168,4.524,2.068,10.759-2.456,13.927 l-40.958,28.679c-4.524,3.168-10.759,2.068-13.927-2.456L201.809,161.372c-3.168-4.524-2.068-10.76,2.456-13.927l40.958-28.679 C249.747,115.598,255.982,116.698,259.15,121.222z"/> <path id="XMLID_1781_" style="fill:#C9E7D3;" d="M287.829,162.18l-57.341,40.15l-17.207-24.575l57.341-40.15L287.829,162.18z M310.772,194.946l-57.341,40.15l74.565,106.49l57.341-40.15L310.772,194.946z"/> <path id="XMLID_1780_" style="fill:#E4D4C8;" d="M130,35v350c0,5.523-4.477,10-10,10H70c-5.523,0-10-4.477-10-10V35 c0-5.523,4.477-10,10-10h50C125.523,25,130,29.477,130,35z"/> <path id="XMLID_1779_" style="fill:#374145;" d="M130,295H60V145h70V295z M130,95H60v20h70V95z M130,325H60v20h70V325z"/> </g> </g>
</svg>